<svg width="532" height="295" viewBox="0 0 532 295" fill="none" xmlns="http://www.w3.org/2000/svg">
<path d="M8.19 155V49.7H22.88V95.2H49.92V49.7H64.61V155H49.92V105.73H22.88V155H8.19ZM75.3411 155L97.7011 49.7H111.871L134.361 155H120.451L115.641 128.48H94.1911L89.1211 155H75.3411ZM96.1411 117.95H113.691L104.851 70.5L96.1411 117.95ZM145.045 155V49.7H166.235C173.255 49.7 179.062 50.6533 183.655 52.56C188.249 54.38 191.629 57.37 193.795 61.53C196.049 65.6033 197.175 70.9767 197.175 77.65C197.175 81.7233 196.742 85.45 195.875 88.83C195.009 92.1233 193.622 94.94 191.715 97.28C189.809 99.5333 187.295 101.18 184.175 102.22L199.125 155H184.955L171.175 105.6H159.735V155H145.045ZM159.735 95.07H165.325C169.485 95.07 172.865 94.55 175.465 93.51C178.065 92.47 179.972 90.6933 181.185 88.18C182.399 85.6667 183.005 82.1567 183.005 77.65C183.005 71.4967 181.879 67.0767 179.625 64.39C177.372 61.6167 172.909 60.23 166.235 60.23H159.735V95.07ZM212.198 155L214.148 49.7H228.578L247.168 135.11L265.888 49.7H280.188L282.138 155H270.308L269.138 78.56L251.328 155H243.008L225.328 78.56L224.158 155H212.198ZM325.188 156.17C318.081 156.17 312.405 154.783 308.158 152.01C303.911 149.237 300.878 145.293 299.058 140.18C297.238 134.98 296.328 128.913 296.328 121.98V82.07C296.328 75.1367 297.238 69.2 299.058 64.26C300.965 59.2333 303.998 55.42 308.158 52.82C312.405 50.1333 318.081 48.79 325.188 48.79C332.295 48.79 337.928 50.1333 342.088 52.82C346.248 55.5067 349.238 59.32 351.058 64.26C352.965 69.2 353.918 75.1367 353.918 82.07V122.11C353.918 128.957 352.965 134.937 351.058 140.05C349.238 145.163 346.248 149.15 342.088 152.01C337.928 154.783 332.295 156.17 325.188 156.17ZM325.188 144.6C329.088 144.6 332.035 143.82 334.028 142.26C336.021 140.613 337.365 138.36 338.058 135.5C338.751 132.553 339.098 129.13 339.098 125.23V79.08C339.098 75.18 338.751 71.8433 338.058 69.07C337.365 66.21 336.021 64.0433 334.028 62.57C332.035 61.01 329.088 60.23 325.188 60.23C321.288 60.23 318.298 61.01 316.218 62.57C314.225 64.0433 312.881 66.21 312.188 69.07C311.495 71.8433 311.148 75.18 311.148 79.08V125.23C311.148 129.13 311.495 132.553 312.188 135.5C312.881 138.36 314.225 140.613 316.218 142.26C318.298 143.82 321.288 144.6 325.188 144.6ZM368.356 155V49.7H378.366L408.266 119.64V49.7H420.486V155H411.126L380.836 83.11V155H368.356ZM453.158 155V117.82L430.408 49.7H444.058L460.178 100.53L476.038 49.7H489.818L467.198 117.82V155H453.158Z" fill="#3D3D3D"/>
<rect x="77" y="237" width="329" height="8" fill="#C4C4C4"/>
<rect x="22" y="287" width="438" height="8" fill="#C4C4C4"/>
<path d="M66.9077 278L64.1831 270.977H55.313L52.6035 278H50L58.6582 255.779H60.9741L69.5718 278H66.9077ZM63.4111 268.691L60.8228 261.713C60.7622 261.531 60.6613 261.234 60.52 260.82C60.3888 260.406 60.2526 259.977 60.1113 259.533C59.9701 259.089 59.854 258.731 59.7632 258.458C59.6623 258.872 59.5513 259.286 59.4302 259.7C59.3192 260.103 59.2082 260.482 59.0972 260.835C58.9862 261.178 58.8903 261.471 58.8096 261.713L56.1758 268.691H63.4111ZM69.4507 283.828C68.9461 283.828 68.5021 283.792 68.1187 283.722C67.7352 283.651 67.4072 283.555 67.1348 283.434V281.239C67.4577 281.34 67.8058 281.416 68.1792 281.466C68.5526 281.527 68.9562 281.557 69.3901 281.557C69.9552 281.557 70.4749 281.446 70.9492 281.224C71.4235 281.002 71.8019 280.624 72.0845 280.089C72.367 279.554 72.5083 278.817 72.5083 277.879V255.87H75.0967V277.682C75.0967 279.065 74.8646 280.21 74.4004 281.118C73.9463 282.026 73.2954 282.702 72.4478 283.146C71.6102 283.601 70.6112 283.828 69.4507 283.828ZM97.7109 255.87V270.189C97.7109 271.754 97.3931 273.146 96.7573 274.367C96.1317 275.588 95.1831 276.552 93.9116 277.258C92.6401 277.955 91.0457 278.303 89.1284 278.303C86.3937 278.303 84.3099 277.561 82.877 276.078C81.4541 274.594 80.7427 272.611 80.7427 270.129V255.87H83.3311V270.205C83.3311 272.082 83.8255 273.53 84.8145 274.549C85.8135 275.568 87.3019 276.078 89.2798 276.078C90.632 276.078 91.737 275.835 92.5947 275.351C93.4626 274.857 94.1034 274.17 94.5171 273.292C94.9409 272.404 95.1528 271.38 95.1528 270.22V255.87H97.7109ZM121.158 266.723C121.158 269.216 120.704 271.299 119.795 272.975C118.887 274.64 117.57 275.896 115.845 276.744C114.129 277.581 112.045 278 109.593 278H103.584V255.87H110.259C112.51 255.87 114.447 256.284 116.072 257.111C117.696 257.929 118.948 259.145 119.826 260.759C120.714 262.364 121.158 264.352 121.158 266.723ZM118.448 266.814C118.448 264.826 118.115 263.186 117.449 261.895C116.793 260.603 115.825 259.644 114.543 259.019C113.271 258.383 111.712 258.065 109.866 258.065H106.157V275.79H109.291C112.338 275.79 114.624 275.038 116.147 273.535C117.681 272.031 118.448 269.791 118.448 266.814ZM138.398 278H126.077V255.87H138.398V258.141H128.65V265.3H137.838V267.541H128.65V275.729H138.398V278ZM168.097 255.87V270.189C168.097 271.754 167.779 273.146 167.143 274.367C166.517 275.588 165.569 276.552 164.297 277.258C163.026 277.955 161.431 278.303 159.514 278.303C156.779 278.303 154.696 277.561 153.263 276.078C151.84 274.594 151.128 272.611 151.128 270.129V255.87H153.717V270.205C153.717 272.082 154.211 273.53 155.2 274.549C156.199 275.568 157.688 276.078 159.666 276.078C161.018 276.078 162.123 275.835 162.98 275.351C163.848 274.857 164.489 274.17 164.903 273.292C165.327 272.404 165.539 271.38 165.539 270.22V255.87H168.097ZM183.703 278L176.271 258.413H176.149C176.19 258.827 176.225 259.331 176.255 259.927C176.286 260.522 176.311 261.173 176.331 261.879C176.351 262.576 176.361 263.287 176.361 264.014V278H173.97V255.87H177.784L184.792 274.276H184.898L192.013 255.87H195.797V278H193.254V263.832C193.254 263.176 193.264 262.52 193.284 261.864C193.304 261.198 193.33 260.573 193.36 259.987C193.39 259.392 193.42 258.877 193.451 258.443H193.33L185.807 278H183.703ZM204.349 274.397L204.546 274.746C204.364 275.482 204.132 276.269 203.85 277.107C203.577 277.944 203.274 278.782 202.941 279.62C202.618 280.467 202.291 281.259 201.958 281.996H200.081C200.292 281.189 200.499 280.336 200.701 279.438C200.903 278.55 201.085 277.672 201.246 276.804C201.418 275.926 201.554 275.124 201.655 274.397H204.349ZM231.807 278L229.083 270.977H220.212L217.503 278H214.899L223.558 255.779H225.874L234.471 278H231.807ZM228.311 268.691L225.722 261.713C225.662 261.531 225.561 261.234 225.419 260.82C225.288 260.406 225.152 259.977 225.011 259.533C224.869 259.089 224.753 258.731 224.663 258.458C224.562 258.872 224.451 259.286 224.33 259.7C224.219 260.103 224.108 260.482 223.997 260.835C223.886 261.178 223.79 261.471 223.709 261.713L221.075 268.691H228.311ZM234.35 283.828C233.846 283.828 233.402 283.792 233.018 283.722C232.635 283.651 232.307 283.555 232.034 283.434V281.239C232.357 281.34 232.705 281.416 233.079 281.466C233.452 281.527 233.856 281.557 234.29 281.557C234.855 281.557 235.374 281.446 235.849 281.224C236.323 281.002 236.701 280.624 236.984 280.089C237.266 279.554 237.408 278.817 237.408 277.879V255.87H239.996V277.682C239.996 279.065 239.764 280.21 239.3 281.118C238.846 282.026 238.195 282.702 237.347 283.146C236.51 283.601 235.511 283.828 234.35 283.828ZM262.61 255.87V270.189C262.61 271.754 262.292 273.146 261.657 274.367C261.031 275.588 260.083 276.552 258.811 277.258C257.54 277.955 255.945 278.303 254.028 278.303C251.293 278.303 249.209 277.561 247.776 276.078C246.354 274.594 245.642 272.611 245.642 270.129V255.87H248.23V270.205C248.23 272.082 248.725 273.53 249.714 274.549C250.713 275.568 252.201 276.078 254.179 276.078C255.531 276.078 256.636 275.835 257.494 275.351C258.362 274.857 259.003 274.17 259.417 273.292C259.84 272.404 260.052 271.38 260.052 270.22V255.87H262.61ZM286.057 266.723C286.057 269.216 285.603 271.299 284.695 272.975C283.787 274.64 282.47 275.896 280.744 276.744C279.029 277.581 276.945 278 274.493 278H268.483V255.87H275.159C277.409 255.87 279.347 256.284 280.971 257.111C282.596 257.929 283.847 259.145 284.725 260.759C285.613 262.364 286.057 264.352 286.057 266.723ZM283.348 266.814C283.348 264.826 283.015 263.186 282.349 261.895C281.693 260.603 280.724 259.644 279.442 259.019C278.171 258.383 276.612 258.065 274.765 258.065H271.057V275.79H274.19C277.237 275.79 279.523 275.038 281.047 273.535C282.581 272.031 283.348 269.791 283.348 266.814ZM303.298 278H290.977V255.87H303.298V258.141H293.55V265.3H302.738V267.541H293.55V275.729H303.298V278ZM323.051 278H320.463V258.141H313.5V255.87H329.984V258.141H323.051V278ZM352.522 266.905C352.522 268.61 352.306 270.164 351.872 271.567C351.438 272.959 350.792 274.16 349.934 275.169C349.086 276.168 348.032 276.94 346.771 277.485C345.509 278.03 344.046 278.303 342.381 278.303C340.665 278.303 339.167 278.03 337.885 277.485C336.614 276.94 335.554 276.163 334.707 275.154C333.869 274.145 333.238 272.939 332.814 271.537C332.401 270.134 332.194 268.58 332.194 266.875C332.194 264.614 332.567 262.631 333.314 260.926C334.061 259.22 335.191 257.893 336.705 256.945C338.228 255.996 340.136 255.522 342.426 255.522C344.616 255.522 346.458 255.991 347.951 256.93C349.455 257.868 350.59 259.19 351.357 260.896C352.134 262.591 352.522 264.594 352.522 266.905ZM334.903 266.905C334.903 268.782 335.171 270.406 335.706 271.779C336.24 273.151 337.058 274.211 338.158 274.958C339.268 275.704 340.675 276.078 342.381 276.078C344.096 276.078 345.499 275.704 346.589 274.958C347.689 274.211 348.501 273.151 349.026 271.779C349.551 270.406 349.813 268.782 349.813 266.905C349.813 264.049 349.213 261.819 348.012 260.214C346.821 258.6 344.959 257.792 342.426 257.792C340.711 257.792 339.298 258.161 338.188 258.897C337.078 259.634 336.25 260.684 335.706 262.046C335.171 263.398 334.903 265.018 334.903 266.905ZM375.031 266.723C375.031 269.216 374.577 271.299 373.668 272.975C372.76 274.64 371.443 275.896 369.718 276.744C368.002 277.581 365.918 278 363.466 278H357.457V255.87H364.132C366.383 255.87 368.32 256.284 369.945 257.111C371.569 257.929 372.821 259.145 373.699 260.759C374.587 262.364 375.031 264.352 375.031 266.723ZM372.321 266.814C372.321 264.826 371.988 263.186 371.322 261.895C370.666 260.603 369.698 259.644 368.416 259.019C367.145 258.383 365.585 258.065 363.739 258.065H360.03V275.79H363.164C366.211 275.79 368.497 275.038 370.021 273.535C371.554 272.031 372.321 269.791 372.321 266.814ZM399.144 266.905C399.144 268.61 398.927 270.164 398.493 271.567C398.059 272.959 397.413 274.16 396.555 275.169C395.708 276.168 394.653 276.94 393.392 277.485C392.13 278.03 390.667 278.303 389.002 278.303C387.286 278.303 385.788 278.03 384.506 277.485C383.235 276.94 382.175 276.163 381.328 275.154C380.49 274.145 379.859 272.939 379.436 271.537C379.022 270.134 378.815 268.58 378.815 266.875C378.815 264.614 379.188 262.631 379.935 260.926C380.682 259.22 381.812 257.893 383.326 256.945C384.849 255.996 386.757 255.522 389.047 255.522C391.237 255.522 393.079 255.991 394.572 256.93C396.076 257.868 397.211 259.19 397.978 260.896C398.755 262.591 399.144 264.594 399.144 266.905ZM381.524 266.905C381.524 268.782 381.792 270.406 382.327 271.779C382.861 273.151 383.679 274.211 384.779 274.958C385.889 275.704 387.297 276.078 389.002 276.078C390.717 276.078 392.12 275.704 393.21 274.958C394.31 274.211 395.122 273.151 395.647 271.779C396.172 270.406 396.434 268.782 396.434 266.905C396.434 264.049 395.834 261.819 394.633 260.214C393.442 258.6 391.58 257.792 389.047 257.792C387.332 257.792 385.919 258.161 384.809 258.897C383.699 259.634 382.872 260.684 382.327 262.046C381.792 263.398 381.524 265.018 381.524 266.905ZM416.566 272.112C416.566 273.424 416.238 274.544 415.582 275.472C414.936 276.39 414.028 277.092 412.857 277.576C411.687 278.061 410.309 278.303 408.725 278.303C407.888 278.303 407.095 278.262 406.349 278.182C405.602 278.101 404.916 277.985 404.29 277.833C403.664 277.682 403.114 277.495 402.64 277.273V274.806C403.397 275.119 404.32 275.412 405.41 275.684C406.5 275.946 407.64 276.078 408.831 276.078C409.941 276.078 410.88 275.931 411.646 275.639C412.413 275.336 412.994 274.907 413.387 274.352C413.791 273.787 413.993 273.111 413.993 272.324C413.993 271.567 413.826 270.936 413.493 270.432C413.16 269.917 412.605 269.453 411.828 269.039C411.061 268.615 410.012 268.166 408.68 267.692C407.741 267.359 406.914 266.996 406.197 266.602C405.481 266.198 404.88 265.744 404.396 265.24C403.912 264.735 403.543 264.15 403.291 263.484C403.049 262.818 402.928 262.056 402.928 261.198C402.928 260.018 403.225 259.008 403.821 258.171C404.426 257.323 405.259 256.677 406.318 256.233C407.388 255.779 408.614 255.552 409.997 255.552C411.177 255.552 412.267 255.663 413.266 255.885C414.275 256.107 415.199 256.405 416.036 256.778L415.234 258.988C414.437 258.655 413.589 258.378 412.691 258.156C411.803 257.934 410.885 257.823 409.936 257.823C408.987 257.823 408.185 257.964 407.529 258.247C406.883 258.519 406.389 258.908 406.046 259.412C405.703 259.917 405.531 260.517 405.531 261.213C405.531 261.99 405.693 262.636 406.016 263.151C406.349 263.666 406.873 264.125 407.59 264.528C408.316 264.922 409.275 265.336 410.466 265.77C411.768 266.244 412.873 266.748 413.781 267.283C414.689 267.808 415.38 268.454 415.854 269.221C416.329 269.978 416.566 270.941 416.566 272.112ZM420.335 276.426C420.335 275.719 420.507 275.22 420.85 274.927C421.193 274.625 421.611 274.473 422.106 274.473C422.621 274.473 423.055 274.625 423.408 274.927C423.761 275.22 423.938 275.719 423.938 276.426C423.938 277.122 423.761 277.632 423.408 277.955C423.055 278.267 422.621 278.424 422.106 278.424C421.611 278.424 421.193 278.267 420.85 277.955C420.507 277.632 420.335 277.122 420.335 276.426Z" fill="black"/>
<path d="M166.176 229.71C162.579 229.71 159.691 228.953 157.514 227.438C155.384 225.876 153.822 223.628 152.828 220.693C151.881 217.758 151.408 214.232 151.408 210.114V190.873C151.408 186.66 151.834 183.087 152.686 180.152C153.585 177.17 155.147 174.898 157.372 173.336C159.644 171.774 162.792 170.993 166.815 170.993C170.412 170.993 173.3 171.608 175.477 172.839C177.702 174.022 179.311 175.868 180.305 178.377C181.299 180.838 181.796 183.962 181.796 187.749V189.879H174.27V188.104C174.27 185.595 174.104 183.56 173.773 181.998C173.442 180.389 172.755 179.205 171.714 178.448C170.72 177.643 169.134 177.241 166.957 177.241C164.59 177.241 162.863 177.785 161.774 178.874C160.733 179.963 160.07 181.454 159.786 183.347C159.549 185.193 159.431 187.299 159.431 189.666V210.966C159.431 213.711 159.62 216.007 159.999 217.853C160.425 219.699 161.206 221.072 162.342 221.971C163.478 222.87 165.087 223.32 167.17 223.32C169.253 223.32 170.862 222.823 171.998 221.829C173.134 220.835 173.915 219.368 174.341 217.427C174.767 215.486 174.98 213.072 174.98 210.185V206.209H167.667V200.529H182.222V229H177.181L176.4 222.397C175.643 224.527 174.459 226.278 172.85 227.651C171.241 229.024 169.016 229.71 166.176 229.71ZM190.469 229V171.49H202.042C205.876 171.49 209.047 172.011 211.556 173.052C214.065 174.046 215.911 175.679 217.094 177.951C218.325 180.176 218.94 183.11 218.94 186.755C218.94 188.98 218.703 191.015 218.23 192.861C217.757 194.66 216.999 196.198 215.958 197.476C214.917 198.707 213.544 199.606 211.84 200.174L220.005 229H212.266L204.74 202.02H198.492V229H190.469ZM198.492 196.269H201.545C203.817 196.269 205.663 195.985 207.083 195.417C208.503 194.849 209.544 193.879 210.207 192.506C210.87 191.133 211.201 189.216 211.201 186.755C211.201 183.394 210.586 180.98 209.355 179.513C208.124 177.998 205.687 177.241 202.042 177.241H198.492V196.269ZM241.983 229.639C238.102 229.639 235.002 228.882 232.682 227.367C230.363 225.852 228.706 223.699 227.712 220.906C226.718 218.066 226.221 214.753 226.221 210.966V189.169C226.221 185.382 226.718 182.14 227.712 179.442C228.754 176.697 230.41 174.614 232.682 173.194C235.002 171.727 238.102 170.993 241.983 170.993C245.865 170.993 248.941 171.727 251.213 173.194C253.485 174.661 255.118 176.744 256.112 179.442C257.154 182.14 257.674 185.382 257.674 189.169V211.037C257.674 214.776 257.154 218.042 256.112 220.835C255.118 223.628 253.485 225.805 251.213 227.367C248.941 228.882 245.865 229.639 241.983 229.639ZM241.983 223.32C244.113 223.32 245.723 222.894 246.811 222.042C247.9 221.143 248.634 219.912 249.012 218.35C249.391 216.741 249.58 214.871 249.58 212.741V187.536C249.58 185.406 249.391 183.584 249.012 182.069C248.634 180.507 247.9 179.324 246.811 178.519C245.723 177.667 244.113 177.241 241.983 177.241C239.853 177.241 238.22 177.667 237.084 178.519C235.996 179.324 235.262 180.507 234.883 182.069C234.505 183.584 234.315 185.406 234.315 187.536V212.741C234.315 214.871 234.505 216.741 234.883 218.35C235.262 219.912 235.996 221.143 237.084 222.042C238.22 222.894 239.853 223.32 241.983 223.32ZM280.399 229.639C276.234 229.639 273.039 228.811 270.814 227.154C268.589 225.497 267.075 223.178 266.27 220.196C265.465 217.167 265.063 213.64 265.063 209.617V171.49H272.731V209.972C272.731 212.433 272.897 214.682 273.228 216.717C273.559 218.752 274.269 220.362 275.358 221.545C276.494 222.728 278.174 223.32 280.399 223.32C282.671 223.32 284.351 222.728 285.44 221.545C286.529 220.362 287.239 218.752 287.57 216.717C287.901 214.682 288.067 212.433 288.067 209.972V171.49H295.664V209.617C295.664 213.64 295.262 217.167 294.457 220.196C293.652 223.178 292.138 225.497 289.913 227.154C287.736 228.811 284.564 229.639 280.399 229.639ZM304.111 229V171.49H318.382C321.837 171.49 324.582 172.129 326.618 173.407C328.7 174.638 330.215 176.436 331.162 178.803C332.108 181.17 332.582 184.033 332.582 187.394C332.582 190.423 332.037 193.05 330.949 195.275C329.907 197.5 328.345 199.227 326.263 200.458C324.18 201.641 321.577 202.233 318.453 202.233H312.134V229H304.111ZM312.134 196.482H315.826C318.145 196.482 319.967 196.222 321.293 195.701C322.618 195.18 323.565 194.281 324.133 193.003C324.701 191.678 324.985 189.832 324.985 187.465C324.985 184.72 324.772 182.613 324.346 181.146C323.967 179.679 323.139 178.661 321.861 178.093C320.583 177.525 318.595 177.241 315.897 177.241H312.134V196.482Z" fill="#3D3D3D"/>
</svg>
