<svg width="231" height="102" viewBox="0 0 231 102" fill="none" xmlns="http://www.w3.org/2000/svg">
<path d="M3.55615 61.2289V15.5566H9.9347V35.2916H21.6758V15.5566H28.0543V61.2289H21.6758V39.8588H9.9347V61.2289H3.55615ZM32.7139 61.2289L42.4228 15.5566H48.5755L58.3409 61.2289H52.3011L50.2125 49.7263H40.8987L38.6973 61.2289H32.7139ZM41.7454 45.159H49.3658L45.5274 24.5783L41.7454 45.159ZM62.98 61.2289V15.5566H72.181C75.2291 15.5566 77.7506 15.9701 79.7449 16.7971C81.7397 17.5865 83.2073 18.8834 84.1478 20.6877C85.1265 22.4544 85.6154 24.7851 85.6154 27.6795C85.6154 29.4462 85.4274 31.0626 85.051 32.5287C84.6749 33.9571 84.0727 35.1788 83.2446 36.1937C82.417 37.1711 81.3254 37.8853 79.9707 38.3364L86.4621 61.2289H80.3094L74.326 39.8024H69.3586V61.2289H62.98ZM69.3586 35.2352H71.7858C73.5921 35.2352 75.0598 35.0096 76.1887 34.5586C77.3177 34.1075 78.1457 33.3369 78.6724 32.2467C79.1995 31.1566 79.4627 29.6342 79.4627 27.6795C79.4627 25.0106 78.9737 23.0935 77.995 21.9282C77.0168 20.7253 75.0789 20.1239 72.181 20.1239H69.3586V35.2352ZM92.1386 61.2289L92.9853 15.5566H99.2509L107.323 52.6019L115.451 15.5566H121.661L122.507 61.2289H117.371L116.863 28.0742L109.129 61.2289H105.517L97.8398 28.0742L97.3317 61.2289H92.1386ZM141.2 61.7364C138.114 61.7364 135.65 61.1348 133.805 59.932C131.961 58.7293 130.644 57.0186 129.854 54.801C129.064 52.5455 128.669 49.9141 128.669 46.907V29.5966C128.669 26.5894 129.064 24.0145 129.854 21.8718C130.682 19.6916 131.999 18.0376 133.805 16.9099C135.65 15.7446 138.114 15.1619 141.2 15.1619C144.286 15.1619 146.732 15.7446 148.538 16.9099C150.345 18.0752 151.643 19.7292 152.433 21.8718C153.261 24.0145 153.675 26.5894 153.675 29.5966V46.9634C153.675 49.9332 153.261 52.5269 152.433 54.7446C151.643 56.9623 150.345 58.6916 148.538 59.932C146.732 61.1348 144.286 61.7364 141.2 61.7364ZM141.2 56.7181C142.893 56.7181 144.173 56.3798 145.038 55.7031C145.904 54.9888 146.487 54.0116 146.788 52.7711C147.089 51.4929 147.24 50.0082 147.24 48.3166V28.2998C147.24 26.6082 147.089 25.1609 146.788 23.9581C146.487 22.7176 145.904 21.7778 145.038 21.1388C144.173 20.4622 142.893 20.1239 141.2 20.1239C139.507 20.1239 138.208 20.4622 137.305 21.1388C136.44 21.7778 135.856 22.7176 135.555 23.9581C135.254 25.1609 135.104 26.6082 135.104 28.2998V48.3166C135.104 50.0082 135.254 51.4929 135.555 52.7711C135.856 54.0116 136.44 54.9888 137.305 55.7031C138.208 56.3798 139.507 56.7181 141.2 56.7181ZM159.944 61.2289V15.5566H164.29L177.273 45.892V15.5566H182.579V61.2289H178.515L165.363 30.0477V61.2289H159.944ZM196.766 61.2289V45.1026L186.888 15.5566H192.815L199.814 37.6034L206.701 15.5566H212.684L202.862 45.1026V61.2289H196.766Z" fill="white"/>
<path d="M72.1553 93.6333C70.5935 93.6333 69.3395 93.3049 68.3942 92.6478C67.4693 91.9703 66.7911 90.9953 66.3595 89.7223C65.9483 88.4493 65.7429 86.9199 65.7429 85.1338V76.7883C65.7429 74.961 65.9279 73.4112 66.2978 72.1382C66.6882 70.8448 67.3664 69.8594 68.3325 69.1819C69.3191 68.5044 70.686 68.1656 72.4328 68.1656C73.9947 68.1656 75.2487 68.4324 76.1939 68.9663C77.1601 69.4794 77.8587 70.2801 78.2903 71.3683C78.7219 72.4358 78.9377 73.7908 78.9377 75.4333V76.3572H75.6698V75.5873C75.6698 74.499 75.5978 73.6164 75.454 72.9389C75.3103 72.241 75.012 71.7275 74.56 71.3991C74.1284 71.05 73.4397 70.8756 72.4945 70.8756C71.4667 70.8756 70.7168 71.1116 70.2439 71.5839C69.7919 72.0562 69.504 72.703 69.3807 73.524C69.2778 74.3247 69.2266 75.2381 69.2266 76.2648V85.5033C69.2266 86.6939 69.3087 87.6898 69.4732 88.4905C69.6582 89.2911 69.9973 89.8867 70.4906 90.2766C70.9838 90.6665 71.6825 90.8617 72.5869 90.8617C73.4914 90.8617 74.19 90.6461 74.6833 90.215C75.1766 89.7839 75.5157 89.1476 75.7007 88.3057C75.8856 87.4638 75.9781 86.4168 75.9781 85.1646V83.4401H72.8027V80.9764H79.1227V93.3253H76.9338L76.5947 90.4614C76.266 91.3852 75.7519 92.1447 75.0533 92.7402C74.3546 93.3357 73.3885 93.6333 72.1553 93.6333ZM82.7036 93.3253V68.3812H87.7287C89.3935 68.3812 90.7704 68.6072 91.8598 69.0587C92.9492 69.4898 93.7508 70.1981 94.2645 71.1836C94.799 72.1486 95.066 73.4212 95.066 75.0022C95.066 75.9672 94.9631 76.8499 94.7577 77.6506C94.5523 78.4309 94.2232 79.0979 93.7712 79.6522C93.3192 80.1862 92.723 80.5761 91.9831 80.8225L95.5285 93.3253H92.1681L88.9002 81.6231H86.1873V93.3253H82.7036ZM86.1873 79.1287H87.5129C88.4995 79.1287 89.301 79.0056 89.9176 78.7592C90.5342 78.5128 90.9862 78.0921 91.2741 77.4966C91.5619 76.9011 91.7057 76.0696 91.7057 75.0022C91.7057 73.5444 91.4386 72.4974 90.9041 71.8611C90.3696 71.204 89.3114 70.8756 87.7287 70.8756H86.1873V79.1287ZM105.072 93.6025C103.386 93.6025 102.04 93.2741 101.033 92.617C100.026 91.9599 99.3065 91.0261 98.8749 89.8147C98.4433 88.5829 98.2275 87.1459 98.2275 85.5033V76.0492C98.2275 74.4067 98.4433 73.0005 98.8749 71.8303C99.3274 70.6397 100.046 69.7362 101.033 69.1203C102.04 68.484 103.386 68.1656 105.072 68.1656C106.757 68.1656 108.093 68.484 109.079 69.1203C110.066 69.7566 110.775 70.6601 111.206 71.8303C111.659 73.0005 111.885 74.4067 111.885 76.0492V85.5341C111.885 87.1559 111.659 88.5724 111.206 89.7839C110.775 90.9953 110.066 91.9395 109.079 92.617C108.093 93.2741 106.757 93.6025 105.072 93.6025ZM105.072 90.8617C105.996 90.8617 106.695 90.6769 107.168 90.3074C107.641 89.9175 107.959 89.3835 108.124 88.706C108.288 88.0082 108.37 87.1971 108.37 86.2732V75.3409C108.37 74.4171 108.288 73.6268 108.124 72.9697C107.959 72.2922 107.641 71.7791 107.168 71.4299C106.695 71.0604 105.996 70.8756 105.072 70.8756C104.147 70.8756 103.438 71.0604 102.944 71.4299C102.472 71.7791 102.153 72.2922 101.989 72.9697C101.825 73.6268 101.742 74.4171 101.742 75.3409V86.2732C101.742 87.1971 101.825 88.0082 101.989 88.706C102.153 89.3835 102.472 89.9175 102.944 90.3074C103.438 90.6769 104.147 90.8617 105.072 90.8617ZM121.752 93.6025C119.944 93.6025 118.556 93.2433 117.59 92.5246C116.624 91.8059 115.967 90.8001 115.617 89.5067C115.268 88.1929 115.093 86.6631 115.093 84.9182V68.3812H118.423V85.0722C118.423 86.1396 118.495 87.1151 118.638 87.9977C118.782 88.8804 119.09 89.5787 119.563 90.0918C120.057 90.6049 120.786 90.8617 121.752 90.8617C122.739 90.8617 123.468 90.6049 123.941 90.0918C124.414 89.5787 124.722 88.8804 124.866 87.9977C125.01 87.1151 125.082 86.1396 125.082 85.0722V68.3812H128.38V84.9182C128.38 86.6631 128.206 88.1929 127.856 89.5067C127.507 90.8001 126.849 91.8059 125.883 92.5246C124.938 93.2433 123.561 93.6025 121.752 93.6025ZM132.048 93.3253V68.3812H138.245C139.745 68.3812 140.937 68.6584 141.821 69.2127C142.725 69.7466 143.383 70.5265 143.794 71.5531C144.205 72.5798 144.411 73.8216 144.411 75.2793C144.411 76.5931 144.174 77.7325 143.702 78.6976C143.249 79.6627 142.571 80.4117 141.667 80.9456C140.762 81.4588 139.632 81.7155 138.276 81.7155H135.532V93.3253H132.048ZM135.532 79.2211H137.135C138.142 79.2211 138.933 79.1083 139.509 78.8824C140.084 78.6564 140.495 78.2665 140.742 77.7122C140.989 77.1375 141.112 76.3368 141.112 75.3101C141.112 74.1195 141.019 73.2056 140.834 72.5694C140.67 71.9331 140.31 71.4915 139.755 71.2452C139.2 70.9988 138.337 70.8756 137.166 70.8756H135.532V79.2211Z" fill="white"/>
</svg>
